Coordinates
version=1
nRows=8
nColumns=36
inDegrees=yes

Units are S.I. units (second, meters, Newtons, ...)
If the header above contains a line with 'inDegrees', this indicates whether rotational values are in degrees (yes) or radians (no).

endheader
time	pelvis_tilt	pelvis_list	pelvis_rotation	pelvis_tx	pelvis_ty	pelvis_tz	hip_flexion_r	hip_adduction_r	hip_rotation_r	knee_angle_r	knee_angle_r_beta	ankle_angle_r	subtalar_angle_r	mtp_angle_r	hip_flexion_l	hip_adduction_l	hip_rotation_l	knee_angle_l	knee_angle_l_beta	ankle_angle_l	subtalar_angle_l	mtp_angle_l	lumbar_extension	lumbar_bending	lumbar_rotation	arm_flex_r	arm_add_r	arm_rot_r	elbow_flex_r	pro_sup_r	arm_flex_l	arm_add_l	arm_rot_l	elbow_flex_l	pro_sup_l
      1.21000000	      2.16679961	      2.72255868	     95.36454273	     -0.24327015	      0.96539129	     -0.39330571	      6.88624678	      4.56201708	    -11.74238213	     18.42404540	      0.32156025	      6.61160628	     -4.51050371	     -7.49999747	     10.53714495	     -5.93776553	     -2.38157382	     64.03684973	      1.11765387	    -16.37766183	    -25.02288146	     -7.49999747	    -15.98710312	      4.47219487	     -1.21703476	      1.11712391	     -5.53468392	    -38.49819186	     42.67098553	    102.33641971	      9.76737755	     -4.22249210	    -21.46477559	     38.69485838	     86.26898211
      1.22000000	      2.00483431	      2.47363890	     95.08847866	     -0.24268408	      0.96632326	     -0.40384527	      6.14824202	      4.51742392	    -11.55886185	     17.83381599	      0.31125881	      6.89412857	     -3.90501457	     -7.49999797	     12.34882144	     -5.81936853	     -2.94942660	     64.30019714	      1.12225015	    -13.73600028	    -25.80953435	     -7.49999797	    -15.86498856	      4.18000588	     -0.82475052	      1.39101354	     -5.80287624	    -37.58981581	     43.43926625	    105.15200293	      9.23916660	     -4.09883269	    -22.35413033	     38.62123145	     87.98468161
      1.23000000	      1.68459186	      2.31980543	     94.81542638	     -0.24197874	      0.96733252	     -0.41426462	      5.27191769	      4.33029252	    -11.26237183	     17.19593804	      0.30012574	      7.13177002	     -3.62084376	     -7.49999800	     13.94200445	     -5.53129496	     -3.54401730	     64.16091032	      1.11981914	    -11.74085197	    -26.69829189	     -7.49999800	    -15.88475643	      3.66765146	     -0.44651706	      1.92214959	     -5.84387922	    -37.19532048	     43.91285959	    104.83362725	      8.78856851	     -4.28479203	    -22.47214454	     38.41281470	     87.81363538
      1.24000000	      1.53569300	      1.89585863	     94.11377179	     -0.24085100	      0.96769463	     -0.42456000	      4.88467174	      4.28848636	    -10.62898165	     16.86896967	      0.29441906	      7.32393731	     -3.28161143	     -7.49999817	     15.70480639	     -5.57293963	     -4.61472400	     63.77146835	      1.11302209	     -9.97899642	    -27.47777179	     -7.49999817	    -15.56159435	      3.27902066	      0.32829934	      2.20816284	     -6.35069391	    -35.50827761	     44.40571563	    101.26642445	      8.24988364	     -4.38948930	    -22.29332003	     38.12462422	     84.84467880
      1.25000000	      1.20135288	      2.40966735	     93.85972598	     -0.24009050	      0.96938719	     -0.43537817	      3.11663556	      4.06198290	    -10.98433329	     15.92764274	      0.27798981	      7.68022079	     -1.81268690	     -7.49999824	     16.28346566	     -5.39494174	     -5.33195053	     62.86931651	      1.09727657	     -7.61701993	    -26.88434590	     -7.49999824	    -16.39206423	      2.80892296	      0.63319960	      2.41800762	     -6.55913804	    -34.34310556	     45.72265068	    102.21264955	      7.69721723	     -4.42640433	    -23.05005783	     38.53702047	     85.09227526
      1.26000000	      1.07222698	      2.19219856	     93.69290788	     -0.23943622	      0.96969883	     -0.44593821	      2.40950681	      4.01176117	    -11.00778629	     15.48563023	      0.27027523	      7.88791332	     -1.60167721	     -7.49999827	     17.69365533	     -5.36607538	     -5.93389915	     61.82505438	      1.07905076	     -6.39281539	    -27.21709542	     -7.49999827	    -16.23727364	      2.53706378	      0.87996820	      2.96339397	     -6.59541152	    -34.04065149	     46.17982945	    102.09045538	      7.10156180	     -4.64081195	    -23.23461746	     38.29870631	     84.99236998
      1.27000000	      0.89159700	      1.97279189	     93.09931565	     -0.23830482	      0.96992546	     -0.45610222	      1.77116096	      3.84313128	    -11.06504303	     15.06334394	      0.26290495	      8.02780332	     -0.61507371	     -7.49999830	     18.90877357	     -5.36401990	     -6.91979212	     60.37262968	      1.05370117	     -4.73448737	    -26.95582983	     -7.49999830	    -16.23640922	      2.13517562	      1.39986494	      3.56638707	     -6.70434894	    -33.34238593	     46.89380018	    101.97214936	      6.51525235	     -4.77266690	    -23.63489591	     38.22120035	     84.84745396
      1.28000000	      0.59352699	      2.47681654	     92.40098029	     -0.23741818	      0.97105763	     -0.46703108	      0.28216874	      3.49398934	    -11.37420643	     14.65431814	      0.25576610	      8.56641818	      1.50214274	     -7.49999836	     19.01216299	     -5.38231337	     -8.29655770	     58.39130503	      1.01912053	     -3.35699588	    -26.04076928	     -7.49999836	    -16.92760720	      1.64473818	      2.05892714	      3.92660996	     -7.29413218	    -31.81627063	     47.63142916	    102.57184075	      6.12431614	     -4.57691149	    -24.88115366	     38.01184869	     84.97587166
